<svg id="visual" viewBox="0 0 900 600" width="900" height="600" xmlns="http://www.w3.org/2000/svg" xmlns:xlink="http://www.w3.org/1999/xlink" version="1.1"><g transform="translate(923.0356949714833 -73.26556298290367)"><path d="M243.4 -265.9C357.6 -252.1 521.2 -237.3 579.7 -163.3C638.2 -89.3 591.6 43.9 545 174C498.5 304.1 452 431.2 361.2 506C270.4 580.8 135.2 603.4 40 548.3C-55.1 493.2 -110.2 360.4 -210.7 288.7C-311.2 217 -457.1 206.5 -548.4 129.9C-639.7 53.4 -676.5 -89.2 -638 -207.2C-599.6 -325.2 -485.8 -418.7 -366.9 -430.9C-248 -443.1 -124 -374 -29.7 -333.2C64.7 -292.3 129.3 -279.7 243.4 -265.9" fill="#fcd1b2"></path></g></svg>